<svg xmlns="http://www.w3.org/2000/svg" aria-hidden="true" style="position:absolute;width:0;height:0;overflow:hidden"><defs>
<symbol id="icon-antenna" viewBox="0 0 32 32"><path d="m30.77 22.1-8.44-8.5.94-4.62c.24.1.5.14.75.14h.01a2.16 2.16 0 1 0-2-1.43l-4.97.6L8.97.16A.53.53 0 0 0 8.6 0a.53.53 0 0 0-.37.16l-1.51 1.5c-.2.2-.2.55 0 .75l.81.83a14.94 14.94 0 0 0 2.52 17.66c.05.04.1.08.15.1-.04.18-.05.36-.05.55v6.18h-6.4a2.67 2.67 0 0 0-2.67 2.67v1.07c0 .3.24.53.53.53h24.54c.29 0 .53-.24.53-.53V30.4c0-1.47-1.2-2.66-2.67-2.66h-6.4v-2.75a14.85 14.85 0 0 0 10.09-1.46l.82.82a.53.53 0 0 0 .75 0l1.51-1.5c.2-.2.2-.54 0-.75zM23.28 6.23a1.07 1.07 0 1 1 .75 1.82 1.07 1.07 0 0 1-.75-1.82zm-1.26 3.5-.6 2.95-1.17-1.18 1.78-1.76zm-.6-.9-1.92 1.92L18 9.25l3.4-.41zM24 28.8c.89 0 1.6.72 1.6 1.6v.53H2.14v-.53c0-.88.71-1.6 1.6-1.6H24zm-7.46-2.13v1.06H11.2v-1.06h5.34zM11.2 25.6v-4.05c0-1.3 1.2-2.35 2.67-2.35s2.67 1.05 2.67 2.35v4.05H11.2zm6.4-1.7v-2.35c0-1.89-1.67-3.42-3.73-3.42a3.8 3.8 0 0 0-3.28 1.79A13.87 13.87 0 0 1 8.31 4.03l18.6 18.71a13.82 13.82 0 0 1-9.3 1.16zm11.3-.68L7.83 2.04l.75-.75 7.94 7.98 13.12 13.2-.76.75z"/><path d="M13.88 20.27a1.6 1.6 0 1 0-.01 3.2 1.6 1.6 0 1 0 0-3.2zm.37 1.98c-.1.1-.24.15-.38.15a.53.53 0 0 1 0-1.07.53.53 0 0 1 .37.92z"/></symbol>
<symbol id="icon-astronaut" viewBox="0 0 32 32"><path d="M31.97 4.52a.53.53 0 0 0-.43-.36l-1.9-.28-.86-1.73c-.18-.36-.78-.36-.96 0l-.85 1.73-1.91.28a.54.54 0 0 0-.3.91l1.38 1.35-.32 1.9c-.04.2.05.4.21.52.17.12.38.14.56.04l1.71-.9 1.71.9a.54.54 0 0 0 .78-.56l-.33-1.9 1.38-1.35c.15-.14.2-.35.14-.55zm-2.46 1.33a.53.53 0 0 0-.15.47l.19 1.12-1-.53a.53.53 0 0 0-.5 0l-1 .53.2-1.12a.53.53 0 0 0-.16-.47l-.81-.79 1.12-.16a.53.53 0 0 0 .4-.3l.5-1 .5 1c.08.16.23.27.4.3l1.12.16-.8.8zM26.13 20.52h-1.06v1.07h1.06v-1.07zM26.13 22.66h-1.06v1.06h1.06v-1.06zM27.2 21.59h-1.07v1.07h1.07v-1.07zM25.07 21.59H24v1.07h1.07v-1.07zM22.4 26.39h-1.07v1.07h1.07v-1.07zM22.4 28.52h-1.07v1.07h1.07v-1.07zM23.47 27.46H22.4v1.06h1.07v-1.06zM21.33 27.46h-1.06v1.06h1.06v-1.06zM16 24.26h-1.07v1.06H16v-1.06zM16 26.39h-1.07v1.07H16v-1.07zM17.07 25.32H16v1.07h1.07v-1.07zM14.93 25.32h-1.06v1.07h1.06v-1.07zM5.87 6.12H4.8V7.2h1.07V6.12zM5.87 8.26H4.8v1.06h1.07V8.26zM6.93 7.19H5.87v1.07h1.06V7.19zM4.8 7.19H3.73v1.07H4.8V7.19z"/><path d="M24.71 14.16c-.28-.39-.7-.64-1.18-.7-.48-.07-.96.05-1.34.35l-1.26.96-1.9 1.41-1.35-.54A6.94 6.94 0 0 0 14.83 2.4a6.96 6.96 0 0 0-6.96 6.93c0 1.39.42 2.68 1.12 3.76l-2.76-.02H6.2l-.16.03-.03.02h-.02l-3.24 1.6-1.89.9a1.78 1.78 0 0 0 .93 3.3c.3.01.58-.06.84-.2l1.4-.74 2.26-1.17h1.35L2.2 22.2.86 23.55a1.65 1.65 0 0 0 0 2.35 1.67 1.67 0 0 0 2.36 0l1.31-1.3 1.74-1.3.9.89-1.76 1.75-1.34 1.34a1.65 1.65 0 0 0 0 2.36 1.67 1.67 0 0 0 2.36 0l3.48-3.47 1.01-1 .02-.02 5.17-5.66 3.47.5h.07c.07 0 .13-.02.2-.04l.04-.02.06-.03 3.21-2.13.03-.03.04-.03 1.27-1.19c.67-.62.76-1.63.22-2.36zM2.14 17.77a.71.71 0 0 1-.56.05.72.72 0 0 1-.21-1.26l1.31-.63.45 1.31-.99.53zm3.5-1.83-1.55.8-.44-1.28 2.03-1-.04 1.48zm15.1-6.62c0 .92-.22 1.79-.6 2.56l-4.18-1.9a1.86 1.86 0 0 0-.8-1.39l1.47-4.86a5.88 5.88 0 0 1 4.1 5.6zm-11.8 0a5.89 5.89 0 0 1 6.65-5.81l-1.44 4.75h-.05a1.87 1.87 0 1 0 0 3.73c.7 0 1.3-.38 1.62-.95l3.86 1.76A5.9 5.9 0 0 1 8.94 9.32zm5.96.8a.8.8 0 0 1-1.6 0 .8.8 0 0 1 1.6 0zM2.46 25.15a.6.6 0 0 1-.85 0 .6.6 0 0 1 0-.85l.96-.95.85.84-.96.96zm3.22 3.73a.6.6 0 0 1-.86 0 .6.6 0 0 1 0-.84l.97-.96.85.85-.96.95zm3.48-3.47-1.77 1.76-.85-.85 1.76-1.75c.05-.04.07-.09.1-.14l.02-.04c.02-.04.02-.08.03-.13l.01-.07-.02-.1c0-.04 0-.07-.02-.1a.55.55 0 0 0-.09-.14l-.02-.04-1.61-1.6-.06-.04a.5.5 0 0 0-.09-.05.51.51 0 0 0-.09-.04.5.5 0 0 0-.1-.02.5.5 0 0 0-.1 0l-.1.03a.48.48 0 0 0-.1.04l-.06.03-1.77 1.33-.9-.9 2.4-2.39 4.36 4.3-.93.91zm6.82-7.02h-.05a.56.56 0 0 0-.3.08.5.5 0 0 0-.08.06l-.04.03-4.7 5.15-4.33-4.26 2.84-2.82a.53.53 0 0 0-.38-.9H6.72l.03-1.6 3.1.02a6.95 6.95 0 0 0 6.26 1.98c.04.03.08.07.13.09l2.41.96.15.75.18.89-3-.43zm4.04.18-.31-1.56 1.44-1.08.95 1.26-2.08 1.38zm3.75-2.83-.83.79-.94-1.24.84-.64a.73.73 0 0 1 .54-.14.72.72 0 0 1 .4 1.23z"/><path d="m13.6 18.54-2.14-2.13a.53.53 0 0 0-.75 0l-2.15 2.13a.54.54 0 0 0 0 .76l2.15 2.13a.54.54 0 0 0 .75 0l2.14-2.13a.54.54 0 0 0 0-.76zm-2.52 1.76L9.7 18.92l1.38-1.38 1.39 1.38-1.39 1.38zM17.16 5.07l-.25 1.04c.07.01 1.73.45 1.73 2.15h1.07c0-2.02-1.66-2.97-2.55-3.19zM19.71 9.32h-1.07v1.07h1.07V9.32z"/></symbol>
<symbol id="icon-clock" viewBox="0 0 32 32"><path d="M31.3 15.3a15.3 15.3 0 1 0-19.96 14.58l.18.03c.12 0 .24-.03.35-.1.13-.07.23-.2.28-.35L16 17.21a1.91 1.91 0 1 0-.84-3.63l-5.1-5.1a.64.64 0 0 0-.9.9l5.1 5.1c-.4.8-.17 1.77.53 2.31l-3.68 11.67a14.04 14.04 0 1 1 10.57-.35l-.4-1.87a.64.64 0 0 0-1.05-.34l-3.83 3.42a.64.64 0 0 0 .23 1.09l4.9 1.56a.64.64 0 0 0 .82-.74l-.4-1.84A15.26 15.26 0 0 0 31.3 15.3zM16 14.66a.64.64 0 1 1 0 1.28.64.64 0 0 1 0-1.28zm2.1 14.87 2.18-1.95.6 2.84-2.79-.9z"/><path d="M15.35 3.19v1.27a.64.64 0 1 0 1.28 0V3.19a.64.64 0 0 0-1.28 0zM3.88 14.66a.64.64 0 0 0 0 1.28h1.27a.64.64 0 1 0 0-1.28H3.88zM28.1 15.94a.64.64 0 1 0 0-1.28h-1.27a.64.64 0 0 0 0 1.28h1.28z"/></symbol>
<symbol id="icon-diagram" viewBox="0 0 32 32"><path d="M14.93 14.96h1.06v4.8h-1.06v-4.8zM19.19 17.1h1.07v2.66h-1.07V17.1zM10.66 18.7h1.07v1.06h-1.07V18.7zM7.46 18.16h1.07v1.6H7.46v-1.6z"/><path d="M1.6 28.3h25.59c.88 0 1.6-.73 1.6-1.6v-2.14c0-.88-.72-1.6-1.6-1.6h-.54V9.66l3.03-2.86a1.6 1.6 0 1 0-.75-.76L26.65 8.2V6.97c0-.88-.71-1.6-1.6-1.6H3.73c-.88 0-1.6.72-1.6 1.6v16H1.6c-.88 0-1.6.7-1.6 1.6v2.12c0 .89.72 1.6 1.6 1.6zM30.38 4.83a.53.53 0 1 1 0 1.06.53.53 0 0 1 0-1.06zM3.2 6.97c0-.3.24-.53.53-.53h21.32c.3 0 .54.23.54.53V9.2l-1.07 1.01V8.03c0-.29-.24-.53-.53-.53H4.79c-.29 0-.53.24-.53.53v13.33c0 .3.24.53.54.53h19.19c.3 0 .53-.23.53-.53V11.7l1.07-1.01v12.28H3.19v-16zM8 13.9a1.6 1.6 0 1 0 1.1 2.75l1.86.93c.21.1.47.06.63-.12l3.94-4.44 3.87 2.9c.21.16.5.14.69-.03l3.36-3.2v8.14H5.33V8.57h18.12v2.66l-3.77 3.57-3.9-2.93a.53.53 0 0 0-.72.08l-4 4.49-1.49-.75c.02-.06.02-.13.02-.19 0-.88-.71-1.6-1.6-1.6zm.53 1.6a.53.53 0 1 1-1.07 0 .53.53 0 0 1 1.07 0zm3.2 8.53h5.33v.53c0 .3-.24.53-.53.53h-4.27a.53.53 0 0 1-.53-.53v-.53zm-10.66.53c0-.3.24-.53.53-.53h9.06v.53c0 .88.72 1.6 1.6 1.6h4.26c.89 0 1.6-.72 1.6-1.6v-.53h9.06c.3 0 .54.24.54.53v2.13c0 .3-.24.53-.53.53H1.59a.53.53 0 0 1-.52-.53v-2.13z"/></symbol>
<symbol id="icon-facebook" viewBox="0 0 32 32"><path d="M32 16c0 4.42-1.8 8.42-4.69 11.31a15.96 15.96 0 0 1-22.62 0 15.95 15.95 0 0 1 0-22.63C7.59 1.8 11.59 0 16 0c4.42 0 8.42 1.8 11.31 4.69S32 11.59 32 16z"/><path d="M18.13 11.72h1.17V9.7c-.2-.03-.9-.09-1.7-.09-1.69 0-2.84 1.06-2.84 3v1.8H12.9v2.27h1.86v5.73h2.28v-5.72h1.78l.29-2.28h-2.07v-1.57c0-.65.18-1.1 1.1-1.1z"/></symbol>
<symbol id="icon-facebook-ellipse" viewBox="0 0 32 32"><path d="M32 16c0 4.42-1.8 8.42-4.69 11.31a15.96 15.96 0 0 1-22.62 0 15.95 15.95 0 0 1 0-22.63C7.59 1.8 11.59 0 16 0c4.42 0 8.42 1.8 11.31 4.69S32 11.59 32 16z"/><path d="M18.13 11.72h1.17V9.7c-.2-.03-.9-.09-1.7-.09-1.69 0-2.84 1.06-2.84 3v1.8H12.9v2.27h1.86v5.73h2.28v-5.72h1.78l.29-2.28h-2.07v-1.57c0-.65.18-1.1 1.1-1.1z"/></symbol>
<symbol id="icon-instagram" viewBox="0 0 32 32"><path d="M32 16c0 4.42-1.8 8.42-4.69 11.31a15.96 15.96 0 0 1-22.62 0 15.95 15.95 0 0 1 0-22.63C7.59 1.8 11.59 0 16 0c4.42 0 8.42 1.8 11.31 4.69S32 11.59 32 16z"/><path d="M22.39 13.36a4.67 4.67 0 0 0-.3-1.55 3.14 3.14 0 0 0-.74-1.14c-.32-.32-.7-.57-1.13-.73-.41-.16-.88-.27-1.56-.3-.68-.03-.9-.04-2.64-.04s-1.95 0-2.64.04c-.68.03-1.14.14-1.55.3-.43.16-.81.4-1.13.74-.33.32-.58.7-.74 1.13-.16.4-.27.87-.3 1.55-.03.69-.04.9-.04 2.64s0 1.96.04 2.64c.03.68.14 1.15.3 1.55.16.43.41.82.74 1.14.32.32.7.58 1.13.74.4.15.87.26 1.55.3.69.02.9.03 2.64.03s1.96 0 2.64-.04a4.67 4.67 0 0 0 1.55-.3 3.28 3.28 0 0 0 1.87-1.87c.16-.4.27-.87.3-1.55.03-.68.04-.9.04-2.64s0-1.95-.03-2.64zm-1.16 5.23c-.02.62-.13.96-.22 1.19-.21.55-.65 1-1.21 1.21-.23.09-.56.2-1.19.22-.67.03-.88.04-2.58.04s-1.92 0-2.59-.04a3.49 3.49 0 0 1-1.19-.22c-.27-.1-.53-.26-.73-.48a2 2 0 0 1-.48-.73 3.5 3.5 0 0 1-.22-1.19c-.03-.67-.04-.88-.04-2.59s0-1.9.04-2.58c.03-.63.13-.96.22-1.19.1-.28.27-.53.48-.73a2 2 0 0 1 .74-.48c.22-.09.56-.2 1.18-.22.68-.03.88-.04 2.59-.04 1.7 0 1.91 0 2.58.04.63.03.97.13 1.2.22.27.1.52.26.73.48.21.2.37.45.48.73.08.23.19.57.22 1.19.03.67.03.88.03 2.58s0 1.91-.03 2.59z"/><path d="M16.02 12.71a3.29 3.29 0 1 0 0 6.58 3.29 3.29 0 0 0 0-6.58zm0 5.42a2.13 2.13 0 1 1 0-4.26 2.13 2.13 0 0 1 0 4.26zM20.21 12.58a.77.77 0 1 1-1.54 0 .77.77 0 0 1 1.54 0z"/></symbol>
<symbol id="icon-instagran-ellipse" viewBox="0 0 32 32"><path d="M32 16c0 4.42-1.8 8.42-4.69 11.31a15.96 15.96 0 0 1-22.62 0 15.95 15.95 0 0 1 0-22.63C7.59 1.8 11.59 0 16 0c4.42 0 8.42 1.8 11.31 4.69S32 11.59 32 16z"/><path d="M22.39 13.36a4.67 4.67 0 0 0-.3-1.55 3.14 3.14 0 0 0-.74-1.14c-.32-.32-.7-.57-1.13-.73-.41-.16-.88-.27-1.56-.3-.68-.03-.9-.04-2.64-.04s-1.95 0-2.64.04c-.68.03-1.14.14-1.55.3-.43.16-.81.4-1.13.74-.33.32-.58.7-.74 1.13-.16.4-.27.87-.3 1.55-.03.69-.04.9-.04 2.64s0 1.96.04 2.64c.03.68.14 1.15.3 1.55.16.43.41.82.74 1.14.32.32.7.58 1.13.74.4.15.87.26 1.55.3.69.02.9.03 2.64.03s1.96 0 2.64-.04a4.67 4.67 0 0 0 1.55-.3 3.28 3.28 0 0 0 1.87-1.87c.16-.4.27-.87.3-1.55.03-.68.04-.9.04-2.64s0-1.95-.03-2.64zm-1.16 5.23c-.02.62-.13.96-.22 1.19-.21.55-.65 1-1.21 1.21-.23.09-.56.2-1.19.22-.67.03-.88.04-2.58.04s-1.92 0-2.59-.04a3.49 3.49 0 0 1-1.19-.22c-.27-.1-.53-.26-.73-.48a2 2 0 0 1-.48-.73 3.5 3.5 0 0 1-.22-1.19c-.03-.67-.04-.88-.04-2.59s0-1.9.04-2.58c.03-.63.13-.96.22-1.19.1-.28.27-.53.48-.73a2 2 0 0 1 .74-.48c.22-.09.56-.2 1.18-.22.68-.03.88-.04 2.59-.04 1.7 0 1.91 0 2.58.04.63.03.97.13 1.2.22.27.1.52.26.73.48.21.2.37.45.48.73.08.23.19.57.22 1.19.03.67.03.88.03 2.58s0 1.91-.03 2.59z"/><path d="M16.02 12.71a3.29 3.29 0 1 0 0 6.58 3.29 3.29 0 0 0 0-6.58zm0 5.42a2.13 2.13 0 1 1 0-4.26 2.13 2.13 0 0 1 0 4.26zM20.21 12.58a.77.77 0 1 1-1.54 0 .77.77 0 0 1 1.54 0z"/></symbol>
<symbol id="icon-linkedIn" viewBox="0 0 32 32"><path d="M32 16c0 4.42-1.8 8.42-4.69 11.31a15.96 15.96 0 0 1-22.62 0 15.95 15.95 0 0 1 0-22.63C7.59 1.8 11.59 0 16 0c4.42 0 8.42 1.8 11.31 4.69S32 11.59 32 16z"/><path d="M22.4 22.4v-4.7c0-2.3-.5-4.06-3.18-4.06-1.29 0-2.16.7-2.5 1.38h-.05v-1.17h-2.54v8.55h2.65v-4.23c0-1.12.21-2.2 1.59-2.2 1.36 0 1.38 1.28 1.38 2.27v4.16h2.65zM9.81 13.85h2.65v8.55H9.81v-8.55zM11.14 9.6a1.55 1.55 0 0 0 0 3.09c.85 0 1.53-.7 1.53-1.55 0-.85-.69-1.54-1.53-1.54z"/></symbol>
<symbol id="icon-linkedIn-ellipse" viewBox="0 0 32 32"><path d="M32 16c0 4.42-1.8 8.42-4.69 11.31a15.96 15.96 0 0 1-22.62 0 15.95 15.95 0 0 1 0-22.63C7.59 1.8 11.59 0 16 0c4.42 0 8.42 1.8 11.31 4.69S32 11.59 32 16z"/><path d="M22.4 22.4v-4.7c0-2.3-.5-4.06-3.18-4.06-1.29 0-2.16.7-2.5 1.38h-.05v-1.17h-2.54v8.55h2.65v-4.23c0-1.12.21-2.2 1.59-2.2 1.36 0 1.38 1.28 1.38 2.27v4.16h2.65zM9.81 13.85h2.65v8.55H9.81v-8.55zM11.14 9.6a1.55 1.55 0 0 0 0 3.09c.85 0 1.53-.7 1.53-1.55 0-.85-.69-1.54-1.53-1.54z"/></symbol>
<symbol id="icon-twitter" viewBox="0 0 32 32"><path d="M32 16c0 4.42-1.8 8.42-4.69 11.31a15.96 15.96 0 0 1-22.62 0 15.95 15.95 0 0 1 0-22.63C7.59 1.8 11.59 0 16 0c4.42 0 8.42 1.8 11.31 4.69S32 11.59 32 16z"/><path d="M22.4 12.03c-.48.21-.98.35-1.51.42A2.6 2.6 0 0 0 22.04 11c-.5.3-1.07.51-1.66.63a2.63 2.63 0 0 0-4.48 2.4 7.43 7.43 0 0 1-5.4-2.75c-.24.4-.37.84-.37 1.32 0 .91.47 1.72 1.17 2.19a2.6 2.6 0 0 1-1.19-.33v.03c0 1.28.91 2.34 2.1 2.58a2.64 2.64 0 0 1-1.18.04 2.65 2.65 0 0 0 2.45 1.83 5.27 5.27 0 0 1-3.88 1.08 7.38 7.38 0 0 0 4.02 1.18 7.42 7.42 0 0 0 7.46-7.8c.52-.38.96-.84 1.32-1.37z"/></symbol>
<symbol id="icon-twitter-ellipse" viewBox="0 0 32 32"><path d="M32 16c0 4.42-1.8 8.42-4.69 11.31a15.96 15.96 0 0 1-22.62 0 15.95 15.95 0 0 1 0-22.63C7.59 1.8 11.59 0 16 0c4.42 0 8.42 1.8 11.31 4.69S32 11.59 32 16z"/><path d="M22.4 12.03c-.48.21-.98.35-1.51.42A2.6 2.6 0 0 0 22.04 11c-.5.3-1.07.51-1.66.63a2.63 2.63 0 0 0-4.48 2.4 7.43 7.43 0 0 1-5.4-2.75c-.24.4-.37.84-.37 1.32 0 .91.47 1.72 1.17 2.19a2.6 2.6 0 0 1-1.19-.33v.03c0 1.28.91 2.34 2.1 2.58a2.64 2.64 0 0 1-1.18.04 2.65 2.65 0 0 0 2.45 1.83 5.27 5.27 0 0 1-3.88 1.08 7.38 7.38 0 0 0 4.02 1.18 7.42 7.42 0 0 0 7.46-7.8c.52-.38.96-.84 1.32-1.37z"/></symbol></defs></svg>